<svg xmlns:dc="http://purl.org/dc/elements/1.1/" xmlns:cc="http://creativecommons.org/ns#" xmlns:rdf="http://www.w3.org/1999/02/22-rdf-syntax-ns#" xmlns:svg="http://www.w3.org/2000/svg" xmlns="http://www.w3.org/2000/svg" xmlns:sodipodi="http://sodipodi.sourceforge.net/DTD/sodipodi-0.dtd" xmlns:inkscape="http://www.inkscape.org/namespaces/inkscape" width="960" height="960" viewBox="0 0 253.99999 254.00001" id="svg8" inkscape:version="0.92.3 (2405546, 2018-03-11)" sodipodi:docname="favicon.svg"><defs id="defs2" /><sodipodi:namedview id="base" pagecolor="#ffffff" bordercolor="#666666" borderopacity="1" inkscape:pageopacity="0" inkscape:pageshadow="2" inkscape:zoom=".7" inkscape:cx="139.05143" inkscape:cy="421.50546" inkscape:document-units="mm" inkscape:current-layer="layer1" showgrid="false" units="px" inkscape:window-width="1920" inkscape:window-height="1025" inkscape:window-x="0" inkscape:window-y="0" inkscape:window-maximized="1" /><g inkscape:label="レイヤー 1" inkscape:groupmode="layer" id="layer1" transform="translate(0,-42.999983)"><path inkscape:connector-curvature="0" style="fill-rule:evenodd;stroke-width:17.4807148" d="M177.19528 50.257128H19.352329c-10.8516383.0-19.73030185 6.969408-19.73030185 15.487597V282.57073c0 8.51818 8.87866355 15.48759 19.73030185 15.48759H177.19528c10.85166.0 19.73031-6.96941 19.73031-15.48759V65.744725c0-8.518189-8.87865-15.487597-19.73031-15.487597zM98.273812 287.21699c-14.205862.0-25.649504-8.98281-25.649504-20.13387.0-11.15104 11.443642-20.13379 25.649504-20.13379 14.205868.0 25.649498 8.98275 25.649498 20.13379.0 11.15106-11.44363 20.13387-25.649498 20.13387zM177.19528 236.10801H19.352329V81.23225H177.19528z" id="path58" /><rect style="fill:#fff;stroke:#ff0;stroke-width:.26458332;stroke-opacity:1" id="rect14" width="157.84294" height="154.87575" x="19.352329" y="81.232246" /><rect style="fill:#000;stroke-width:.26458332" id="rect160" width="77.863091" height="47.625" x="61.232143" y="241.81546" /><circle style="fill:#fff;stroke-width:.26458332" id="path164" cx="99.21875" cy="267.70682" r="23.623512" /><text style="font-style:normal;font-weight:400;font-size:141.1111145px;line-height:1.25;font-family:sans-serif;letter-spacing:0;word-spacing:0;fill:red;fill-opacity:1;stroke:none;stroke-width:.26458332" x="23.056547" y="213.46724" id="text158"><tspan sodipodi:role="line" id="tspan156" x="23.056547" y="213.46724" style="font-size:141.1111145px;fill:red;stroke-width:.26458332">暗</tspan></text><rect style="fill:#fff;stroke:#ff0;stroke-width:.26458332;stroke-opacity:1" id="rect4594" width="127.00002" height="76.199982" x="118.00417" y="185.30803" /><path inkscape:connector-curvature="0" style="fill:#00f;fill-rule:evenodd;stroke-width:8.76383114" d="m199.64704 202.24135h-9.07142v-8.46665h9.07142zm-63.5 8.46666h-9.07142v8.46668h9.07142zm45.35715-16.93331h-9.07144v8.46665h9.07144zm-36.28573.0h-18.14284v8.46665h18.14284zm72.57145 59.26664h18.14286v-8.46666h-18.14286zm-36.28572-33.86665h9.07143v-8.46668h-9.07143zm-36.28573 25.39999h-18.14284v8.46666h18.14284zm72.57145-50.79998h-9.07143v8.46665h9.07143zm18.14286.0h-9.07144v8.46665h9.07144zm-18.14286 42.33331h18.14286v-25.4h-18.14286zm36.28571-50.79999V261.508c0 4.65668-4.08215 8.46668-9.07143 8.46668H118.00417c-4.98928.0-9.07142-3.81-9.07142-8.46668v-76.19998c0-4.65666 4.08214-8.46666 9.07142-8.46666h127.00002c4.98928.0 9.07143 3.81 9.07143 8.46666zm-9.07143.0H118.00417V261.508h127.00002zm-81.64286 33.86667h9.07142v-8.46668h-9.07142zm0-25.39999h-9.07142v8.46665h9.07142zm-18.14287 25.39999h9.07145v-8.46668h-9.07145zm9.07145 33.86665h54.42857v-8.46666h-54.42857zm45.35713-33.86665h9.07144v-8.46668h-9.07144zm-63.5 8.46666h-9.07142v8.46666h9.07142zm45.35715.0v8.46666h9.07143v-8.46666zm-18.14286.0v8.46666h9.07142v-8.46666zm-9.07142.0h-9.07145v8.46666h9.07145zm45.35713 8.46666h9.07144v-8.46666h-9.07144z" id="path61" /></g></svg>