<?xml version="1.0" encoding="UTF-8" standalone="no"?>
<!-- Created with Inkscape (http://www.inkscape.org/) -->

<svg
   xmlns:dc="http://purl.org/dc/elements/1.1/"
   xmlns:cc="http://creativecommons.org/ns#"
   xmlns:rdf="http://www.w3.org/1999/02/22-rdf-syntax-ns#"
   xmlns:svg="http://www.w3.org/2000/svg"
   xmlns="http://www.w3.org/2000/svg"
   xmlns:sodipodi="http://sodipodi.sourceforge.net/DTD/sodipodi-0.dtd"
   xmlns:inkscape="http://www.inkscape.org/namespaces/inkscape"
   width="960"
   height="960"
   viewBox="0 0 253.99999 254.00001"
   version="1.1"
   id="svg8"
   inkscape:version="0.92.3 (2405546, 2018-03-11)"
   sodipodi:docname="favicon.svg">
  <defs
     id="defs2" />
  <sodipodi:namedview
     id="base"
     pagecolor="#ffffff"
     bordercolor="#666666"
     borderopacity="1.0"
     inkscape:pageopacity="0.0"
     inkscape:pageshadow="2"
     inkscape:zoom="0.7"
     inkscape:cx="139.05143"
     inkscape:cy="421.50546"
     inkscape:document-units="mm"
     inkscape:current-layer="layer1"
     showgrid="false"
     units="px"
     inkscape:window-width="1920"
     inkscape:window-height="1025"
     inkscape:window-x="0"
     inkscape:window-y="0"
     inkscape:window-maximized="1" />
  <metadata
     id="metadata5">
    <rdf:RDF>
      <cc:Work
         rdf:about="">
        <dc:format>image/svg+xml</dc:format>
        <dc:type
           rdf:resource="http://purl.org/dc/dcmitype/StillImage" />
        <dc:title />
      </cc:Work>
    </rdf:RDF>
  </metadata>
  <g
     inkscape:label="レイヤー 1"
     inkscape:groupmode="layer"
     id="layer1"
     transform="translate(0,-42.999983)">
    <path
       inkscape:connector-curvature="0"
       style="fill-rule:evenodd;stroke-width:17.4807148"
       d="M 177.19528,50.257128 H 19.352329 c -10.8516383,0 -19.73030185,6.969408 -19.73030185,15.487597 V 282.57073 c 0,8.51818 8.87866355,15.48759 19.73030185,15.48759 H 177.19528 c 10.85166,0 19.73031,-6.96941 19.73031,-15.48759 V 65.744725 c 0,-8.518189 -8.87865,-15.487597 -19.73031,-15.487597 z M 98.273812,287.21699 c -14.205862,0 -25.649504,-8.98281 -25.649504,-20.13387 0,-11.15104 11.443642,-20.13379 25.649504,-20.13379 14.205868,0 25.649498,8.98275 25.649498,20.13379 0,11.15106 -11.44363,20.13387 -25.649498,20.13387 z M 177.19528,236.10801 H 19.352329 V 81.23225 H 177.19528 Z"
       id="path58" />
    <rect
       style="fill:#ffffff;stroke:#ffff00;stroke-width:0.26458332;stroke-opacity:1"
       id="rect14"
       width="157.84294"
       height="154.87575"
       x="19.352329"
       y="81.232246" />
    <rect
       style="fill:#000000;stroke-width:0.26458332"
       id="rect160"
       width="77.863091"
       height="47.625"
       x="61.232143"
       y="241.81546" />
    <circle
       style="fill:#ffffff;stroke-width:0.26458332"
       id="path164"
       cx="99.21875"
       cy="267.70682"
       r="23.623512" />
    <text
       xml:space="preserve"
       style="font-style:normal;font-weight:normal;font-size:141.1111145px;line-height:1.25;font-family:sans-serif;letter-spacing:0px;word-spacing:0px;fill:#ff0000;fill-opacity:1;stroke:none;stroke-width:0.26458332"
       x="23.056547"
       y="213.46724"
       id="text158"><tspan
         sodipodi:role="line"
         id="tspan156"
         x="23.056547"
         y="213.46724"
         style="font-size:141.1111145px;fill:#ff0000;stroke-width:0.26458332">暗</tspan></text>
    <rect
       style="fill:#ffffff;stroke:#ffff00;stroke-width:0.26458332;stroke-opacity:1"
       id="rect4594"
       width="127.00002"
       height="76.199982"
       x="118.00417"
       y="185.30803" />
    <path
       inkscape:connector-curvature="0"
       style="fill:#0000ff;fill-rule:evenodd;stroke-width:8.76383114"
       d="m 199.64704,202.24135 h -9.07142 v -8.46665 h 9.07142 z m -63.5,8.46666 h -9.07142 v 8.46668 h 9.07142 z m 45.35715,-16.93331 h -9.07144 v 8.46665 h 9.07144 z m -36.28573,0 h -18.14284 v 8.46665 h 18.14284 z m 72.57145,59.26664 h 18.14286 v -8.46666 h -18.14286 z m -36.28572,-33.86665 h 9.07143 v -8.46668 h -9.07143 z m -36.28573,25.39999 h -18.14284 v 8.46666 h 18.14284 z m 72.57145,-50.79998 h -9.07143 v 8.46665 h 9.07143 z m 18.14286,0 h -9.07144 v 8.46665 h 9.07144 z m -18.14286,42.33331 h 18.14286 v -25.4 h -18.14286 z m 36.28571,-50.79999 V 261.508 c 0,4.65668 -4.08215,8.46668 -9.07143,8.46668 H 118.00417 c -4.98928,0 -9.07142,-3.81 -9.07142,-8.46668 v -76.19998 c 0,-4.65666 4.08214,-8.46666 9.07142,-8.46666 h 127.00002 c 4.98928,0 9.07143,3.81 9.07143,8.46666 z m -9.07143,0 H 118.00417 V 261.508 h 127.00002 z m -81.64286,33.86667 h 9.07142 v -8.46668 h -9.07142 z m 0,-25.39999 h -9.07142 v 8.46665 h 9.07142 z m -18.14287,25.39999 h 9.07145 v -8.46668 h -9.07145 z m 9.07145,33.86665 h 54.42857 v -8.46666 h -54.42857 z m 45.35713,-33.86665 h 9.07144 v -8.46668 h -9.07144 z m -63.5,8.46666 h -9.07142 v 8.46666 h 9.07142 z m 45.35715,0 v 8.46666 h 9.07143 v -8.46666 z m -18.14286,0 v 8.46666 h 9.07142 v -8.46666 z m -9.07142,0 h -9.07145 v 8.46666 h 9.07145 z m 45.35713,8.46666 h 9.07144 v -8.46666 h -9.07144 z"
       id="path61" />
  </g>
</svg>
