<?xml version="1.0" standalone="no"?>
<!DOCTYPE svg PUBLIC "-//W3C//DTD SVG 20010904//EN"
 "http://www.w3.org/TR/2001/REC-SVG-20010904/DTD/svg10.dtd">
<svg version="1.0" xmlns="http://www.w3.org/2000/svg"
 width="700.000000pt" height="700.000000pt" viewBox="0 0 700.000000 700.000000"
 preserveAspectRatio="xMidYMid meet">
<metadata>
Created by potrace 1.11, written by Peter Selinger 2001-2013
</metadata>
<g transform="translate(0.000000,700.000000) scale(0.100000,-0.100000)"
fill="#000000" stroke="none">
<path d="M415 6789 c-169 -28 -324 -134 -386 -264 l-29 -60 0 -3081 0 -3081
30 -61 c41 -81 133 -165 227 -209 l72 -33 2382 0 2383 0 75 37 c90 44 186 134
219 206 34 73 42 133 42 328 l0 179 693 0 692 0 51 24 c58 27 106 80 123 135
8 28 11 340 11 1128 l0 1089 -26 52 c-27 55 -79 99 -143 120 -24 9 -226 12
-717 12 l-684 0 0 1543 c0 1700 3 1608 -62 1709 -69 108 -207 196 -351 223
-68 13 -374 15 -2315 14 -1231 -1 -2259 -5 -2287 -10z m4475 -2159 l0 -1320
-510 0 -510 0 0 100 0 100 -785 0 -785 0 0 -668 c0 -368 -3 -743 -6 -833 l-7
-164 138 0 138 0 -7 118 -7 117 225 0 226 0 0 -205 0 -205 -1235 0 -1235 0 0
2140 0 2140 2180 0 2180 0 0 -1320z m-1270 -1304 c0 -12 -38 -15 -222 -18
-242 -3 -256 -6 -321 -67 -59 -54 -71 -93 -75 -238 l-4 -133 -224 0 -224 0 0
235 0 235 535 0 c457 0 535 -2 535 -14z m3130 -1296 l0 -1050 -1750 0 -1750 0
0 1050 0 1050 1750 0 1750 0 0 -1050z m-3750 450 l0 -240 -225 0 -225 0 0 240
0 240 225 0 225 0 0 -240z m-73 -1052 l68 -23 5 -240 c6 -265 9 -283 71 -344
55 -55 100 -71 212 -71 112 0 109 4 81 -104 -57 -226 -251 -418 -476 -471 -81
-19 -225 -19 -306 0 -105 25 -206 80 -291 161 -138 130 -203 279 -204 464 0
127 18 203 76 315 88 169 268 300 460 335 81 14 226 4 304 -22z"/>
<path d="M2751 5494 c-50 -54 -91 -101 -91 -104 0 -4 76 -76 170 -161 93 -85
170 -158 170 -163 0 -4 -197 -7 -442 -4 l-443 3 3 -87 3 -88 1007 0 1007 0 0
88 1 87 -516 -4 -515 -3 20 23 c10 13 41 47 68 75 27 29 48 56 46 61 -2 5 -69
69 -149 143 -80 73 -168 156 -196 183 l-51 48 -92 -97z"/>
<path d="M850 3800 l0 -1360 135 0 135 0 0 110 0 110 225 0 225 0 0 -110 0
-110 140 0 140 0 0 1360 0 1360 -500 0 -500 0 0 -1360z m720 690 l0 -480 -225
0 -225 0 0 473 c0 261 3 477 7 480 3 4 105 7 225 7 l218 0 0 -480z m0 -1155
l0 -485 -222 2 -223 3 -3 470 c-1 259 0 476 3 483 3 9 58 12 225 12 l220 0 0
-485z"/>
<path d="M2433 4810 l-123 -59 19 -43 c10 -24 36 -79 56 -123 62 -134 205
-505 205 -532 0 -3 -132 -4 -294 -2 l-293 4 0 -90 0 -90 1191 0 1191 0 0 90 0
90 -434 -3 c-238 -2 -431 0 -429 5 135 238 228 435 289 612 22 63 38 115 37
116 -2 1 -34 10 -71 19 -37 9 -91 25 -120 36 -29 11 -57 20 -63 20 -6 0 -18
-26 -28 -57 -58 -187 -238 -598 -315 -720 l-21 -33 -282 1 -283 1 85 29 c47
16 91 31 97 34 22 8 -126 404 -241 647 l-51 107 -122 -59z"/>
<path d="M3500 2725 l0 -115 250 0 250 0 0 115 0 115 -250 0 -250 0 0 -115z"/>
<path d="M4250 2725 l0 -115 125 0 125 0 0 115 0 115 -125 0 -125 0 0 -115z"/>
<path d="M4750 2725 l0 -115 125 0 125 0 0 115 0 115 -125 0 -125 0 0 -115z"/>
<path d="M5250 2725 l0 -115 125 0 125 0 0 115 0 115 -125 0 -125 0 0 -115z"/>
<path d="M5750 2725 l0 -115 125 0 125 0 0 115 0 115 -125 0 -125 0 0 -115z"/>
<path d="M6250 2725 l0 -115 125 0 125 0 0 115 0 115 -125 0 -125 0 0 -115z"/>
<path d="M3500 2265 l0 -115 125 0 125 0 0 115 0 115 -125 0 -125 0 0 -115z"/>
<path d="M4000 2265 l0 -115 125 0 125 0 0 115 0 115 -125 0 -125 0 0 -115z"/>
<path d="M4500 2265 l0 -115 125 0 125 0 0 115 0 115 -125 0 -125 0 0 -115z"/>
<path d="M5000 2265 l0 -115 125 0 125 0 0 115 0 115 -125 0 -125 0 0 -115z"/>
<path d="M5500 2265 l0 -115 125 0 125 0 0 115 0 115 -125 0 -125 0 0 -115z"/>
<path d="M6000 2030 l0 -350 250 0 250 0 0 350 0 350 -250 0 -250 0 0 -350z"/>
<path d="M3500 1795 l0 -115 125 0 125 0 0 115 0 115 -125 0 -125 0 0 -115z"/>
<path d="M4000 1795 l0 -115 125 0 125 0 0 115 0 115 -125 0 -125 0 0 -115z"/>
<path d="M4500 1795 l0 -115 125 0 125 0 0 115 0 115 -125 0 -125 0 0 -115z"/>
<path d="M5000 1795 l0 -115 125 0 125 0 0 115 0 115 -125 0 -125 0 0 -115z"/>
<path d="M5500 1795 l0 -115 125 0 125 0 0 115 0 115 -125 0 -125 0 0 -115z"/>
<path d="M3500 1325 l0 -115 250 0 250 0 0 115 0 115 -250 0 -250 0 0 -115z"/>
<path d="M4250 1325 l0 -115 750 0 750 0 0 115 0 115 -750 0 -750 0 0 -115z"/>
<path d="M6000 1325 l0 -115 250 0 250 0 0 115 0 115 -250 0 -250 0 0 -115z"/>
</g>
</svg>
