<svg version="1.0" xmlns="http://www.w3.org/2000/svg" width="700pt" height="700pt" viewBox="0 0 700 700"><g transform="translate(0.000000,700.000000) scale(0.100000,-0.100000)" fill="#000" stroke="none"><path d="M415 6789c-169-28-324-134-386-264l-29-60V3384 303l30-61C71 161 163 77 257 33l72-33h2382 2383l75 37c90 44 186 134 219 206 34 73 42 133 42 328v179h693 692l51 24c58 27 106 80 123 135 8 28 11 340 11 1128v1089l-26 52c-27 55-79 99-143 120-24 9-226 12-717 12h-684v1543c0 17e2 3 1608-62 1709-69 108-207 196-351 223-68 13-374 15-2315 14-1231-1-2259-5-2287-10zm4475-2159V3310h-510-510v1e2 1e2h-785-785v-668c0-368-3-743-6-833l-7-164h138 138l-7 118-7 117h225 226v-205-205H1765 530v2140 2140h2180 2180V4630zM3620 3326c0-12-38-15-222-18-242-3-256-6-321-67-59-54-71-93-75-238l-4-133h-224-224v235 235h535c457 0 535-2 535-14zm3130-1296V980H5e3 3250v1050 1050H5e3h1750V2030zM3e3 2480v-240h-225-225v240 240h225 225v-240zm-73-1052 68-23 5-240c6-265 9-283 71-344 55-55 1e2-71 212-71s109 4 81-104c-57-226-251-418-476-471-81-19-225-19-306 0-105 25-206 80-291 161-138 130-203 279-204 464 0 127 18 203 76 315 88 169 268 3e2 460 335 81 14 226 4 304-22z"/><path d="M2751 5494c-50-54-91-101-91-104 0-4 76-76 170-161 93-85 170-158 170-163 0-4-197-7-442-4l-443 3 3-87 3-88h1007 1007v88l1 87-516-4-515-3 20 23c10 13 41 47 68 75 27 29 48 56 46 61s-69 69-149 143c-80 73-168 156-196 183l-51 48-92-97z"/><path d="M850 38e2V2440h135 135v110 110h225 225v-110-110h140 140v1360 1360h-5e2-5e2V38e2zm720 690v-480h-225-225v473c0 261 3 477 7 480 3 4 105 7 225 7h218v-480zm0-1155v-485l-222 2-223 3-3 470c-1 259 0 476 3 483 3 9 58 12 225 12h220v-485z"/><path d="M2433 4810l-123-59 19-43c10-24 36-79 56-123 62-134 205-505 205-532 0-3-132-4-294-2l-293 4v-90-90h1191 1191v90 90l-434-3c-238-2-431 0-429 5 135 238 228 435 289 612 22 63 38 115 37 116-2 1-34 10-71 19s-91 25-120 36-57 20-63 20-18-26-28-57c-58-187-238-598-315-720l-21-33-282 1-283 1 85 29c47 16 91 31 97 34 22 8-126 404-241 647l-51 107-122-59z"/><path d="M35e2 2725v-115h250 250v115 115h-250-250v-115z"/><path d="M4250 2725v-115h125 125v115 115h-125-125v-115z"/><path d="M4750 2725v-115h125 125v115 115h-125-125v-115z"/><path d="M5250 2725v-115h125 125v115 115h-125-125v-115z"/><path d="M5750 2725v-115h125 125v115 115h-125-125v-115z"/><path d="M6250 2725v-115h125 125v115 115h-125-125v-115z"/><path d="M35e2 2265v-115h125 125v115 115h-125-125v-115z"/><path d="M4e3 2265v-115h125 125v115 115h-125-125v-115z"/><path d="M45e2 2265v-115h125 125v115 115h-125-125v-115z"/><path d="M5e3 2265v-115h125 125v115 115h-125-125v-115z"/><path d="M55e2 2265v-115h125 125v115 115h-125-125v-115z"/><path d="M6e3 2030v-350h250 250v350 350h-250-250v-350z"/><path d="M35e2 1795v-115h125 125v115 115h-125-125v-115z"/><path d="M4e3 1795v-115h125 125v115 115h-125-125v-115z"/><path d="M45e2 1795v-115h125 125v115 115h-125-125v-115z"/><path d="M5e3 1795v-115h125 125v115 115h-125-125v-115z"/><path d="M55e2 1795v-115h125 125v115 115h-125-125v-115z"/><path d="M35e2 1325v-115h250 250v115 115h-250-250v-115z"/><path d="M4250 1325v-115h750 750v115 115H5e3h-750v-115z"/><path d="M6e3 1325v-115h250 250v115 115h-250-250v-115z"/></g></svg>